{"title":"The A-Team (2010) DVDRip XviD AC3 peaSoup","uid":9447966,"size":1278851374,"categoryP":"video","categoryS":"movies","magnet":"?xt=urn:btih:c3443a28d45c341ad2d0ed086761f324dbdb7be5&amp;dn=The+A-Team+%282010%29+DVDRip+XviD+AC3+peaSoup&amp;tr=udp%3A%2F%2Ftracker.openbittorrent.com%3A80&amp;tr=udp%3A%2F%2Fopen.demonii.com%3A1337&amp;tr=udp%3A%2F%2Ftracker.coppersurfer.tk%3A6969&amp;tr=udp%3A%2F%2Fexodus.desync.com%3A6969","seeders":0,"leechers":1,"uploader":"peaSoup","files":-1,"time":1389124451,"description":"Storyline\n\nFour American soldiers who are in Iraq are sent on a mission to recover plates for printing 100 dollar bills that were used to print a billion dollars. After doing the job and returning to the base their commanding officer is killed in an explosion and the plates are stolen by another operative. They would be court martialed and sent to different prisons. 6 months later, the leader, Hannibal Smith is visited by a CIA spook who tells him he knows where the man who took the plates is and wants him and his men to recover it. So he helps him escape and he breaks out the others and they go after the plates. But after doing it, they discover that the spook might not be ok. And a military intelligence officer who was involved with one of them is pursuing them.                                                                      &lt;a href=&quot; http://i772.photobucket.com/albums/yy5/moonglum11/TheA-Team2010DVDRipXviDAC3peaSoupavi_snapshot_000627_20140107_113251_zps7884f060.jpg&quot; rel=&quot;nofollow&quot; target=&quot;_NEW&quot;&gt; http://i772.photobucket.com/albums/yy5/moonglum11/TheA-Team2010DVDRipXviDAC3peaSoupavi_snapshot_000627_20140107_113251_zps7884f060.jpg&lt;/a&gt;     &lt;a href=&quot; http://i772.photobucket.com/albums/yy5/moonglum11/TheA-Team2010DVDRipXviDAC3peaSoupavi_snapshot_002334_20140107_113324_zpseddc367f.jpg&quot; rel=&quot;nofollow&quot; target=&quot;_NEW&quot;&gt; http://i772.photobucket.com/albums/yy5/moonglum11/TheA-Team2010DVDRipXviDAC3peaSoupavi_snapshot_002334_20140107_113324_zpseddc367f.jpg&lt;/a&gt;     &lt;a href=&quot; http://i772.photobucket.com/albums/yy5/moonglum11/TheA-Team2010DVDRipXviDAC3peaSoupavi_snapshot_012410_20140107_113721_zps2e5c53a3.jpg&quot; rel=&quot;nofollow&quot; target=&quot;_NEW&quot;&gt; http://i772.photobucket.com/albums/yy5/moonglum11/TheA-Team2010DVDRipXviDAC3peaSoupavi_snapshot_012410_20140107_113721_zps2e5c53a3.jpg&lt;/a&gt;     &lt;a href=&quot; http://i772.photobucket.com/albums/yy5/moonglum11/TheA-Team2010DVDRipXviDAC3peaSoupavi_snapshot_013613_20140107_113743_zps252b4eec.jpg&quot; rel=&quot;nofollow&quot; target=&quot;_NEW&quot;&gt; http://i772.photobucket.com/albums/yy5/moonglum11/TheA-Team2010DVDRipXviDAC3peaSoupavi_snapshot_013613_20140107_113743_zps252b4eec.jpg&lt;/a&gt;     &lt;a href=&quot; http://i772.photobucket.com/albums/yy5/moonglum11/TheA-Team2010DVDRipXviDAC3peaSoupavi_thumbs_20140107_113801_zps6f0fd47b.jpg&quot; rel=&quot;nofollow&quot; target=&quot;_NEW&quot;&gt; http://i772.photobucket.com/albums/yy5/moonglum11/TheA-Team2010DVDRipXviDAC3peaSoupavi_thumbs_20140107_113801_zps6f0fd47b.jpg&lt;/a&gt;               Format                                   : AVI\nFormat/Info                              : Audio Video Interleave\nFormat profile                           : OpenDML\nFile size                                : 1.19 GiB\nDuration                                 : 1h 53mn\nOverall bit rate                         : 1 497 Kbps\nMovie name                               : The A-Team (2010) DVDRip XviD AC3 peaSoup\nWriting application                      : Lavf53.21.0\nOriginal source form/Name                : A_TEAM\n\nVideo\nID                                       : 0\nFormat                                   : MPEG-4 Visual\nFormat profile                           : Advanced Simple@L5\nFormat settings, BVOP                    : 2\nFormat settings, QPel                    : No\nFormat settings, GMC                     : No warppoints\nFormat settings, Matrix                  : Default (H.263)\nMuxing mode                              : Packed bitstream\nCodec ID                                 : XVID\nCodec ID/Hint                            : XviD\nDuration                                 : 1h 53mn\nBit rate                                 : 1 100 Kbps\nWidth                                    : 720 pixels\nHeight                                   : 306 pixels\nDisplay aspect ratio                     : 2.35:1\nFrame rate                               : 25.000 fps\nColor space                              : YUV\nChroma subsampling                       : 4:2:0\nBit depth                                : 8 bits\nScan type                                : Progressive\nCompression mode                         : Lossy\nBits/(Pixel*Frame)                       : 0.200\nStream size                              : 896 MiB (73%)\nWriting library                          : XviD 1.2.1 (UTC 2008-12-04)\n\nAudio\nID                                       : 1\nFormat                                   : AC-3\nFormat/Info                              : Audio Coding 3\nMode extension                           : CM (complete main)\nFormat settings, Endianness              : Big\nCodec ID                                 : 2000\nDuration                                 : 1h 53mn\nBit rate mode                            : Constant\nBit rate                                 : 384 Kbps\nChannel count                            : 6 channels\nChannel positions                        : Front: L C R, Side: L R, LFE\nSampling rate                            : 48.0 KHz\nBit depth                                : 16 bits\nCompression mode                         : Lossy\nStream size                              : 313 MiB (26%)\nAlignment                                : Aligned on interleaves\nInterleave, duration                     : 32 ms (0.80 video frame)\n\n","torrent":{"xt":"urn:btih:c3443a28d45c341ad2d0ed086761f324dbdb7be5","amp;dn":"The+A-Team+%282010%29+DVDRip+XviD+AC3+peaSoup","amp;tr":["udp%3A%2F%2Ftracker.openbittorrent.com%3A80","udp%3A%2F%2Fopen.demonii.com%3A1337","udp%3A%2F%2Ftracker.coppersurfer.tk%3A6969","udp%3A%2F%2Fexodus.desync.com%3A6969"],"infoHash":"c3443a28d45c341ad2d0ed086761f324dbdb7be5","infoHashBuffer":{"type":"Buffer","data":[195,68,58,40,212,92,52,26,210,208,237,8,103,97,243,36,219,219,123,229]},"announce":[],"urlList":[]}}